<?xml version="1.0" encoding="UTF-8"?>
<svg width="64" height="64" version="1.1" viewBox="0 0 16.9 16.9" xmlns="http://www.w3.org/2000/svg">
	<g transform="translate(0 -280)">
		<path d="m8.23 281c-.17 0-.34.02-.51.03-.7.07-1.48.25-2.4.56-1.93.65-3.04 1.98-4.29 3.3-1 1.06-1.08 1.88-.94 2.32.03.08.06.17.1.25.01.02.03.05.04.07-.05.05-.1.12-.12.19-.21.66.04 1.31.47 1.7s.98.61 1.53.79c.38.12.46.28.53.51.07.23.06.49.08.77.03.31.05 1.52 1.06 2.75 1.01 1.24 2.33 1.71 3.51 1.92 1.2.22 2.49.14 4.33-.48 1.93-.65 3.04-1.98 4.29-3.3 1-1.06 1.08-1.88.94-2.32-.03-.08-.06-.17-.1-.25-.01-.02-.03-.05-.05-.07.05-.05.1-.12.12-.19.21-.66-.04-1.31-.47-1.7s-.98-.61-1.53-.79c-.38-.12-.46-.28-.53-.51-.07-.23-.06-.49-.08-.77-.03-.31-.05-1.52-1.06-2.75-1.01-1.24-2.33-1.71-3.51-1.92-.45-.08-.91-.12-1.41-.11z" fill="#fff" stroke-linecap="round" stroke-linejoin="round"/>
		<path d="m5.54 287.75s-.38.6-1.18.6-1.2.49-1.2.49-.05-.41-1.2-.43c-1.15-.01-1.37-.63-1.37-.63-.32.99.63 1.52 1.67 1.86 1.04.33.92 1.33.96 1.71.04.39.03 1.36.95 2.48s2.09 1.54 3.21 1.75 2.29.14 4.08-.46c1.79-.61 2.83-1.84 4.09-3.17.93-.98.9-1.58.82-1.83-.08-.05-.06-.04-.16-.07-.09-.03-.24-.07-.46-.09-.46-.04-.64-.09-1.65.16-.49.12-1.45.62-2.29 1.09-.81.46-1.48.87-1.51.89.01.02.01.05.01.07 0 .12-.11.22-.25.22s-.25-.1-.25-.22.11-.22.25-.22c.07 0 .14.03.18.08.05-.03.7-.44 1.51-.89.83-.47 1.79-.97 2.31-1.1.51-.12.82-.17 1.05-.19.24-.01.41.01.63.03.23.02.39.06.48.09.03.01.04.02.06.03 0 0 0-.01 0-.01s-.03-.27-.69-.41c-.65-.13-1.09-.05-1.89-.02s-3.02 1-4.01 1.39-2.53.86-3.92 1.01c-1.39.15-2.01-1.33-2.03-1.72-.02-.39.3-.47 1.11-.77.81-.3.67-1.72.67-1.72zm10.4 2.5c.01 0 .03 0 .04 0 .02.01.03.04.02.06 0 0-.3.57-.76 1.23-.45.66-1.06 1.39-1.67 1.74-1.2.67-2.67 1.41-2.67 1.41-.02.01-.05.01-.07-.02-.01-.02 0-.05.02-.06 0 0 1.47-.74 2.66-1.41.58-.33 1.19-1.06 1.64-1.71.45-.65.75-1.22.75-1.22.01-.01.02-.02.03-.02zm-.45.02c.01 0 .03 0 .04 0 .02.01.03.04.02.06 0 0-.3.57-.76 1.23-.45.66-1.06 1.39-1.67 1.74-1.2.67-2.67 1.41-2.67 1.41-.02.01-.05 0-.07-.02-.01-.02 0-.05.02-.06 0 0 1.47-.74 2.66-1.41.58-.33 1.19-1.06 1.64-1.71.45-.65.75-1.22.75-1.22.01-.01.02-.02.03-.02zm-.44.02c.01-.01.03 0 .04 0 .02.01.03.04.02.06 0 0-.3.57-.76 1.23-.45.66-1.06 1.39-1.67 1.74-1.2.67-2.67 1.41-2.67 1.41-.02.01-.05.01-.07-.02-.01-.02 0-.05.02-.06 0 0 1.47-.74 2.66-1.41.58-.33 1.19-1.06 1.64-1.71.45-.65.75-1.22.75-1.22.01-.01.02-.02.03-.02z" fill="#f7bb07"/>
		<path d="M1.9 286.96c.01 0 .02-.01.03-.02 0 0 .3-.57.75-1.22.45-.65 1.06-1.38 1.64-1.71 1.19-.67 2.66-1.41 2.66-1.41.02-.01.03-.04.02-.06-.02-.03-.05-.03-.07-.02 0 0-1.47.74-2.67 1.41-.61.35-1.22 1.08-1.67 1.74-.46.66-.76 1.23-.76 1.23-.01.02 0 .05.02.06.01 0 .03.01.04 0Zm-.44.02c.01 0 .02-.01.03-.02 0 0 .3-.57.75-1.22.45-.65 1.06-1.38 1.64-1.71 1.19-.67 2.66-1.41 2.66-1.41.02-.01.03-.04.02-.06-.02-.02-.05-.03-.07-.02 0 0-1.47.74-2.67 1.41-.61.35-1.22 1.08-1.67 1.74-.46.66-.76 1.23-.76 1.23-.01.02 0 .05.02.06.01 0 .03 0 .04 0Zm-.45.02c.01 0 .02-.01.03-.02 0 0 .3-.57.75-1.22s1.06-1.38 1.64-1.71c1.19-.67 2.66-1.41 2.66-1.41.02-.01.03-.04.02-.06-.02-.03-.05-.03-.07-.02 0 0-1.47.74-2.67 1.41-.61.35-1.22 1.08-1.67 1.74-.46.66-.76 1.23-.76 1.23-.01.02 0 .05.02.06.01 0 .03 0 .04 0Zm10.41 2.5s-.14-1.42.67-1.72 1.13-.38 1.11-.77-.64-1.87-2.03-1.72c-1.39.15-2.93.62-3.92 1.01s-3.2 1.36-4.01 1.39c-.8.03-1.24.11-1.89-.02-.66-.14-.69-.41-.69-.41s0-.01 0-.01c.02.01.03.02.06.03.09.03.25.07.48.09.22.02.39.04.63.03.23-.02.54-.07 1.05-.19.52-.13 1.48-.63 2.31-1.1.81-.45 1.46-.86 1.51-.89.04.05.11.08.18.08.14 0 .25-.1.25-.22s-.11-.22-.25-.22-.25.1-.25.22c0 .02 0 .05.01.07-.03.02-.7.43-1.51.89-.84.47-1.8.97-2.29 1.09-1.01.25-1.19.2-1.65.16-.22-.02-.37-.06-.46-.09-.1-.03-.08-.02-.16-.07-.08-.25-.11-.85.82-1.83 1.26-1.33 2.3-2.56 4.09-3.17 1.79-.6 2.96-.67 4.08-.46s2.29.63 3.21 1.75.91 2.09.95 2.48c.04.38-.08 1.38.96 1.71 1.04.34 1.99.87 1.67 1.86 0 0-.22-.62-1.37-.63-1.15-.02-1.2-.43-1.2-.43s-.4.49-1.2.49c-.8 0-1.18.6-1.18.6Z" fill="#0273b7"/>
	</g>
</svg>
